<svg width="32" height="32" viewBox="0 0 32 32" fill="none" xmlns="http://www.w3.org/2000/svg">
<g filter="url(#filter0_d_2100_422)">
<rect width="24" height="24" transform="translate(4)" fill="white" style="mix-blend-mode:multiply"/>
<path d="M25 4.5H7C6.60218 4.5 6.22064 4.65804 5.93934 4.93934C5.65804 5.22064 5.5 5.60218 5.5 6V18C5.5 18.3978 5.65804 18.7794 5.93934 19.0607C6.22064 19.342 6.60218 19.5 7 19.5H25C25.3978 19.5 25.7794 19.342 26.0607 19.0607C26.342 18.7794 26.5 18.3978 26.5 18V6C26.5 5.60218 26.342 5.22064 26.0607 4.93934C25.7794 4.65804 25.3978 4.5 25 4.5ZM25 6V8.25H7V6H25ZM7 18V9.75H25V18H7Z" fill="#2A254B"/>
<path d="M16 15H8.5V16.5H16V15Z" fill="#2A254B"/>
</g>
<defs>
<filter id="filter0_d_2100_422" x="0" y="0" width="32" height="32" filterUnits="userSpaceOnUse" color-interpolation-filters="sRGB">
<feFlood flood-opacity="0" result="BackgroundImageFix"/>
<feColorMatrix in="SourceAlpha" type="matrix" values="0 0 0 0 0 0 0 0 0 0 0 0 0 0 0 0 0 0 127 0" result="hardAlpha"/>
<feOffset dy="4"/>
<feGaussianBlur stdDeviation="2"/>
<feComposite in2="hardAlpha" operator="out"/>
<feColorMatrix type="matrix" values="0 0 0 0 0 0 0 0 0 0 0 0 0 0 0 0 0 0 0.25 0"/>
<feBlend mode="normal" in2="BackgroundImageFix" result="effect1_dropShadow_2100_422"/>
<feBlend mode="normal" in="SourceGraphic" in2="effect1_dropShadow_2100_422" result="shape"/>
</filter>
</defs>
</svg>
